<svg width="340" height="480" viewBox="0 0 340 480" fill="none" xmlns="http://www.w3.org/2000/svg">
<rect width="340" height="480" rx="17" fill="#E9F6F8"/>
<g clip-path="url(#clip0_3512_2254)">
<path d="M-71.8477 59.1687C-41.1412 98.6179 32.4958 160.892 84.9288 185.065C180.429 229.091 219.727 282.812 120.424 353.902C21.1214 424.991 -13.9515 391.466 -42.2634 475.885" stroke="white" stroke-width="25.358"/>
<path d="M416.251 -89.2916C423.414 -205.396 399.051 44.875 300.358 113.834C239.223 156.55 188.969 148.154 185.804 59.4855C182.639 -29.183 218.765 -30.8001 177.114 -88.5745" stroke="white" stroke-width="25.358"/>
<path d="M178.098 761.208C312.108 645.148 325.261 501.394 246.026 318.715C217.59 253.154 242.854 176.245 323.505 196.432C404.157 216.619 401.87 249.62 458.533 227.07" stroke="white" stroke-width="25.358"/>
</g>
<defs>
<clipPath id="clip0_3512_2254">
<rect width="340" height="480" fill="white"/>
</clipPath>
</defs>
</svg>
